inDegrees=no
num_controls=7
num_derivatives=13
num_iterations=149
num_multipliers=7
num_parameters=0
num_slacks=7
num_states=26
objective=0.476315
objective_accelerations=0.045395
objective_balance=0.003656
objective_effort=0.041255
objective_height=0.380360
objective_ligament=0.005650
solver_duration=2031.818901
status=Solve_Succeeded
success=true
DataType=double
version=3
OpenSimVersion=4.5
endheader
time	/jointset/ground_pelvis/pelvis_tilt/value	/jointset/ground_pelvis/pelvis_tx/value	/jointset/ground_pelvis/pelvis_ty/value	/jointset/hip_l/hip_flexion_l/value	/jointset/hip_l/hip_adduction_l/value	/jointset/hip_l/hip_rotation_l/value	/jointset/back/lumbar_extension/value	/jointset/patellofemoral_l/patellar_flexion_l/value	/jointset/knee_l/knee_flexion_l/value	/jointset/knee_l/knee_adduction_l/value	/jointset/knee_l/knee_rotation_l/value	/jointset/ankle_l/ankle_angle_l/value	/jointset/subtalar_l/subtalar_angle_l/value	/jointset/ground_pelvis/pelvis_tilt/speed	/jointset/ground_pelvis/pelvis_tx/speed	/jointset/ground_pelvis/pelvis_ty/speed	/jointset/hip_l/hip_flexion_l/speed	/jointset/hip_l/hip_adduction_l/speed	/jointset/hip_l/hip_rotation_l/speed	/jointset/back/lumbar_extension/speed	/jointset/patellofemoral_l/patellar_flexion_l/speed	/jointset/knee_l/knee_flexion_l/speed	/jointset/knee_l/knee_adduction_l/speed	/jointset/knee_l/knee_rotation_l/speed	/jointset/ankle_l/ankle_angle_l/speed	/jointset/subtalar_l/subtalar_angle_l/speed	/forceset/tau_hip_flexion_l	/forceset/tau_hip_adduction_l	/forceset/tau_hip_rotation_l	/forceset/tau_knee_flexion_l	/forceset/tau_ankle_angle_l	/forceset/tau_subtalar_angle_l	/forceset/tau_lumbar_extension	lambda_cid13_p0	lambda_cid13_p1	lambda_cid13_p2	lambda_cid13_p3	lambda_cid13_p4	lambda_cid13_p5	lambda_cid14_p0	/jointset/ground_pelvis/pelvis_tilt/accel	/jointset/ground_pelvis/pelvis_tx/accel	/jointset/ground_pelvis/pelvis_ty/accel	/jointset/hip_l/hip_flexion_l/accel	/jointset/hip_l/hip_adduction_l/accel	/jointset/hip_l/hip_rotation_l/accel	/jointset/back/lumbar_extension/accel	/jointset/patellofemoral_l/patellar_flexion_l/accel	/jointset/knee_l/knee_flexion_l/accel	/jointset/knee_l/knee_adduction_l/accel	/jointset/knee_l/knee_rotation_l/accel	/jointset/ankle_l/ankle_angle_l/accel	/jointset/subtalar_l/subtalar_angle_l/accel	gamma_cid13_p0	gamma_cid13_p1	gamma_cid13_p2	gamma_cid13_p3	gamma_cid13_p4	gamma_cid13_p5	gamma_cid14_p0
1.5	0.008796672057642781	-0.01297762390731152	0.849490766108285	0.6855983294427125	-0.3218922452613863	-0.1297953355032331	-0.7986512476043744	0.7937676515722092	0.7937676515720018	-0.09823062019278048	-0.1744697899938168	0.1585365987470898	0.02674167757019328	0.3197998912516186	0.2322395737019527	0.4365213400885555	-2.014637515689311	0.08129352861519372	-0.6461289536643158	0.8374965434400736	-2.035419646627783	-2.0354196466279	-0.1568369197446423	-0.0008911116580198097	-0.4657796840717636	-0.07144698905944251	-0.1962656854486157	0.02165621027288912	-0.00594899082916768	-0.2327854797067438	0.06863497768081585	0.04098101335629346	0.2788502998112497	-19.9670729144018	-16.54142601816933	4.740852249753724	-8.493151302671791	-668.6199997062479	-75.69145112848074	-14.69780098924691	-0.007823897430021003	0.6736686656051821	-0.6341207772624331	-0.7104669852555554	0.4780915459234242	-0.4079495168820684	2.00308914764869	-1.033525536994918	-1.033525536994912	-0.2394192956023053	0.01333552995305252	-0.308848490299384	0.4592860872760955	3.924481245969594e-07	7.698866317508228e-07	-1.896793909299164e-06	-9.462827416569447e-08	4.720490274236942e-07	5.789389435839454e-07	3.281632461627992e-07
1.51	0.0119941705627751	-0.01062176113668328	0.8538234239682041	0.6654180640408199	-0.3210565649431171	-0.1362751452710863	-0.7901776469397562	0.7733639601357187	0.7733639601355227	-0.09981409728213235	-0.1744784261184227	0.1538636732207812	0.02604879811857719	0.3196546884776937	0.2389071479148394	0.4299199070715678	-2.021153639992786	0.08583861269027494	-0.6497291365049618	0.8571067607044279	-2.045036982446236	-2.045036982446167	-0.1598821149991922	-0.0008045627409452831	-0.4687199457085429	-0.06711235538434265	-0.1890103989717005	0.02077829394366585	-0.005712054272944959	-0.228806610666937	0.06923353023219538	0.04026859450710647	0.2717215262731559	-19.5380238453921	-16.35754066645751	4.769097828192653	-8.391556622534925	-663.9751500763911	-75.59097260347501	-15.44035880659479	-0.02460196188246511	0.6594112061323353	-0.6865994300672075	-0.5828518798008645	0.4422861528200954	-0.3201348919686778	1.922463698937243	-0.8836574807315815	-0.8836574807034149	-0.3405214543262486	0.0106862523888758	-0.273756228462811	0.4231011463084198	4.026327257579748e-07	8.949780441559304e-07	-1.889995698159394e-06	-8.403874166526057e-08	5.032260954387692e-07	6.550047769759524e-07	3.379887316590672e-07
1.52	0.01518887034126724	-0.008200000742525816	0.8580873785247233	0.6451805040505119	-0.3201755199211916	-0.1427877733122094	-0.7815114489658727	0.7528725313657518	0.7528725313655685	-0.1014287166868207	-0.1744853224179004	0.1491639168324859	0.02539977483144848	0.3192401459234178	0.245419098407796	0.4227806794085652	-2.026096433372559	0.09036646934613973	-0.6526926083181199	0.8760160052931201	-2.052967113323128	-2.05296711332287	-0.1630653828115378	-0.0005431466317018631	-0.4711458564691468	-0.06267575616198309	-0.1817551124947855	0.01990037761444413	-0.00547511771672831	-0.2248277416271302	0.0698320827835755	0.03955617565792156	0.2645927527350617	-19.10774496001481	-16.17544864706839	4.799433800776331	-8.339233317452317	-659.3485636336934	-75.55540480749893	-16.17103903110819	-0.06169185350024879	0.6425439216192007	-0.7416797064654032	-0.3958008005151017	0.4746460620801307	-0.2806073113845365	1.862894612516261	-0.6960845486822276	-0.6960845486822407	-0.2670338071614511	0.04830896838680854	-0.2059783150642891	0.4796791967280332	3.498412912396412e-07	1.238150666968973e-06	-1.496052257770912e-06	-7.8888029196702e-09	4.769906926376887e-07	7.019150574622045e-07	3.202255290930073e-07
1.53	0.01837808266077423	-0.005713920855284712	0.8622773509165254	0.6249013763803709	-0.3192489957758218	-0.1493297076515958	-0.7726597967894973	0.7323103728497378	0.732310372849637	-0.1030735008384875	-0.1744905562683065	0.1444426644868982	0.02479608521944111	0.3185573366861276	0.25176859935519	0.4151324510388779	-2.029469681984744	0.09493124274309715	-0.655598780763243	0.8941864726405153	-2.059175779286041	-2.059175779285961	-0.1659091763376158	-0.000483361256253962	-0.4730096870227561	-0.05804613981468357	-0.1743500647333783	0.0187088154374202	-0.005257044934275314	-0.2213531535472225	0.07090827711392771	0.03873762177563184	0.2574013610601093	-18.54880124198203	-15.96182195882809	4.815639125684402	-8.350181719714579	-655.0364977477166	-75.5336257930295	-16.88999893851677	-0.07832596249572883	0.6269544241157911	-0.7885279786920142	-0.2691765784377401	0.4461100457778577	-0.2810648952422149	1.774929194614596	-0.5399856204666885	-0.5399856204934091	-0.2953719455415046	-0.012203692553424	-0.1622742342330332	0.456700315322725	2.30137818812e-07	1.813034575840443e-06	-6.907670113056765e-07	1.379190674613981e-07	3.897545395944435e-07	7.178475629860921e-07	2.731493454607242e-07
1.54	0.02155911678717883	-0.003165185710006455	0.8663884143093361	0.6045962982867358	-0.3182770804830258	-0.1558977922522666	-0.7636302786598952	0.7116947820740225	0.7116947820739985	-0.1047471868894645	-0.1744945956678872	0.1397056360740301	0.02423911126322518	0.3176045073027413	0.2579501500152263	0.4069988796103243	-2.031286518071631	0.09944469883102335	-0.6579226605750056	0.9115891959384483	-2.063653565263786	-2.063653565263885	-0.1688457626721127	-0.0003042564678944359	-0.474301069925316	-0.05333262500371106	-0.166945016971966	0.01751725326040419	-0.005038972151869524	-0.2178785654673105	0.07198447144428272	0.03791906789335216	0.2502099693851589	-17.98737140779523	-15.7501848067374	4.833937340122643	-8.401024952405185	-650.7185583683738	-75.54345379390847	-17.59799350439719	-0.1156958827195215	0.6089538641476743	-0.8387483182386294	-0.08451829545540995	0.4643826002738822	-0.1641487847124853	1.709345802623814	-0.349908551648578	-0.3499085516485784	-0.285592368845234	0.07217285096910139	-0.09148878485436493	0.4964588894626223	1.446381797208813e-07	2.149945098189622e-06	-1.708324933782592e-07	2.323273043699945e-07	3.198103459762757e-07	7.095181287966046e-07	2.389093160601459e-07
